PathFileType	4	(X/Y/Z)	D:\MotionData\Pi-Spi Study\20230118_AMCsubject1\Trimmed_left_abd_18001_rotated.trc
DataRate	CameraRate	NumFrames	NumMarkers	Units	OrigDataRate	OrigDataStartFrame	OrigNumFrames
200.00	200.00	       8	35	mm	200.00	126	       200
Frame#	Time	C7			Sternum			r_AMC1			r_AMC2			r_AMC3			l_AMC1			l_AMC2			l_AMC3			PX			T8			r_humerous			r_elbow_medial			r_elbow_lateral			r_forearm			r_wrist_radius			r_wrist_ulna			r_MCP_1			r_MCP_3			l_humerous			l_elbow_medial			l_elbow_lateral			l_forearm			l_wrist_radius			l_wrist_ulna			l_MCP_1			l_MCP_3			r_ASIS			r_PSIS			l_ASIS			l_PSIS			r_IC			l_IC			TS			AI			AA			
		X1	Y1	Z1	X2	Y2	Z2	X3	Y3	Z3	X4	Y4	Z4	X5	Y5	Z5	X6	Y6	Z6	X7	Y7	Z7	X8	Y8	Z8	X9	Y9	Z9	X10	Y10	Z10	X11	Y11	Z11	X12	Y12	Z12	X13	Y13	Z13	X14	Y14	Z14	X15	Y15	Z15	X16	Y16	Z16	X17	Y17	Z17	X18	Y18	Z18	X19	Y19	Z19	X20	Y20	Z20	X21	Y21	Z21	X22	Y22	Z22	X23	Y23	Z23	X24	Y24	Z24	X25	Y25	Z25	X26	Y26	Z26	X27	Y27	Z27	X28	Y28	Z28	X29	Y29	Z29	X30	Y30	Z30	X31	Y31	Z31	X32	Y32	Z32	X33	Y33	Z33	X34	Y34	Z34	X35	Y35	Z35	

126	0.625	200.7056	1368.9304	-207.6171	340.4696	1326.4781	-196.9675	195.8197	1310.5478	-59.004	227.7834	1313.4637	-20.0826	246.8665	1350.3448	-38.8112	186.4044	1349.4822	-327.3327	218.2263	1385.0105	-344.3111	216.3537	1401.8309	-294.9171	415.8166	1137.853	-206.6565	180.5763	1188.6298	-223.6123	310.7357	1134.5974	-4.335	250.7216	991.0016	-37.6375	261.2676	1000.589	27.5188	318.0863	847.0533	51.9681	370.1015	786.3093	35.9206	321.6651	777.7974	51.3735	394.0228	703.7342	48.6151	344.8828	698.7309	60.8039	302.0226	1484.4045	-350.0672	366.1054	1569.2103	-454.1508	321.4633	1595.3312	-448.9725	348.3427	1752.059	-458.5136	387.2674	1822.7958	-443.4345	378.3922	1818.3959	-487.6694	378.9173	1893.3217	-445.5001	376.4508	1889.5938	-488.7849	375.5938	905.5865	-80.5527	190.1588	929.8378	-168.4055	382.7586	893.2465	-337.3606	193.8292	924.1398	-270.2232	294.7914	969.2388	-54.5819	299.2875	941.8628	-377.6766	128.3901	1290.204	-290.0767	154.5121	1210.1996	-345.9645	162.2733	1378.4416	-391.8706
127	0.63	200.6976	1368.9386	-207.5969	340.4909	1326.488	-196.9678	195.8282	1310.5597	-58.9864	227.8133	1313.4548	-20.0671	246.8738	1350.4069	-38.8464	186.3703	1349.4744	-327.2822	218.6815	1384.814	-344.4455	216.3377	1401.8213	-294.8974	415.8136	1137.8557	-206.6263	180.5812	1188.6384	-223.559	310.7501	1134.6128	-4.3305	250.7237	991.0192	-37.634	261.2857	1000.585	27.5225	318.1334	847.0469	51.9235	370.0677	786.3383	35.9458	321.7328	777.7951	51.3731	394.0252	703.7658	48.5716	345.0025	698.6331	60.7362	302.0558	1484.3861	-350.0646	366.1544	1569.2071	-454.0979	321.5626	1595.3491	-449.0994	348.3549	1751.936	-458.4243	387.2996	1822.8133	-443.3794	378.4377	1818.3624	-487.6422	378.9798	1893.3101	-445.4615	376.5025	1889.5953	-488.7681	375.6535	905.6138	-80.5058	190.1606	929.8259	-168.3637	382.7486	893.2526	-337.355	193.8104	924.1502	-270.2176	294.8636	969.2172	-54.5539	299.2795	941.8602	-377.6493	128.0148	1290.3109	-289.9741	154.498	1210.1721	-345.9549	162.2659	1378.4275	-391.8495
128	0.635	200.7185	1368.9379	-207.5828	340.4987	1326.4628	-196.9669	195.8422	1310.5524	-58.9759	227.8426	1313.488	-20.0482	246.9298	1350.337	-38.7857	186.3787	1349.4535	-327.2749	218.6807	1384.7987	-344.4459	216.3581	1401.8279	-294.9109	415.8566	1137.8378	-206.6382	180.5744	1188.6224	-223.5607	310.8295	1134.5674	-4.332	250.7667	991.0052	-37.6355	261.3183	1000.583	27.513	318.143	847.0406	51.9031	370.1594	786.2675	35.8617	321.7593	777.7653	51.3474	394.0869	703.7164	48.5245	345.0379	698.6448	60.7293	302.0198	1484.3618	-350.0307	366.1674	1569.1906	-454.0776	321.5153	1595.3077	-448.9124	348.4156	1751.9087	-458.3949	387.3898	1822.75	-443.374	378.4723	1818.3438	-487.5879	379.0452	1893.2733	-445.4197	376.5629	1889.5596	-488.7357	375.6002	905.5877	-80.5062	190.1519	929.7729	-168.3679	382.7315	893.2357	-337.2788	193.8186	924.1334	-270.1941	294.7666	969.2584	-54.5696	299.2271	941.9046	-377.5675	128.0058	1290.302	-289.9336	154.436	1210.1348	-345.872	162.2834	1378.4042	-391.8625
129	0.64	200.7175	1368.9363	-207.5631	340.5212	1326.473	-196.959	195.8771	1310.5576	-58.9375	227.7528	1313.4525	-20.0205	246.9446	1350.3027	-38.7611	186.3811	1349.4542	-327.2751	218.7101	1384.8033	-344.4608	216.3713	1401.8317	-294.9034	415.8603	1137.8347	-206.6121	180.5938	1188.6255	-223.5254	310.8061	1134.5726	-4.3026	250.791	990.9946	-37.635	261.342	1000.5757	27.503	318.2001	846.9813	51.8653	370.1674	786.2969	35.8468	321.8254	777.7084	51.3756	394.0783	703.7542	48.509	345.0002	698.6227	60.6595	302.0306	1484.38	-350.0024	366.198	1569.1681	-454.0449	321.5507	1595.3022	-448.8994	348.4413	1751.9187	-458.3586	387.4335	1822.7465	-443.3372	378.5414	1818.3311	-487.5923	379.1259	1893.282	-445.4081	376.6239	1889.5488	-488.7077	375.5949	905.6236	-80.4861	190.1813	929.8111	-168.3027	382.7338	893.2529	-337.2901	193.8312	924.1312	-270.1536	294.8547	969.1599	-54.5364	299.2027	941.9394	-377.5702	128.0304	1290.3238	-289.94	154.4259	1210.1412	-345.8318	162.2771	1378.3622	-391.8486
130	0.645	200.7409	1368.9274	-207.5515	340.5304	1326.4701	-196.9586	195.9244	1310.554	-58.8808	227.9027	1313.4615	-20.0409	246.9546	1350.3364	-38.7449	186.4065	1349.4377	-327.25	218.2457	1384.9591	-344.2913	216.3494	1401.8165	-294.8942	415.8646	1137.8276	-206.6053	180.5826	1188.6366	-223.5012	310.8709	1134.5781	-4.3466	250.8086	990.9985	-37.649	261.3721	1000.5675	27.4959	318.1923	846.9965	51.86	370.2358	786.2557	35.7801	321.8353	777.694	51.3104	394.1894	703.6675	48.3959	344.9338	698.6811	60.6557	301.9957	1484.3539	-349.9902	366.2257	1569.1934	-454.0202	321.6583	1595.3181	-449.0248	348.5211	1752.0101	-458.4229	387.5	1822.7365	-443.3553	378.5954	1818.3184	-487.5713	379.1715	1893.2687	-445.3679	376.6961	1889.5194	-488.7068	375.6491	905.5983	-80.4494	190.1616	929.7667	-168.3174	382.762	893.2747	-337.2676	193.8124	924.1442	-270.1215	294.8437	969.1524	-54.4974	299.2033	941.9232	-377.5226	128.0056	1290.3307	-289.8987	154.3902	1210.1205	-345.7706	162.2959	1378.3224	-391.8365
131	0.65	200.7367	1368.937	-207.5148	340.5568	1326.4835	-196.9779	195.9112	1310.5636	-58.8797	227.9279	1313.4456	-19.9948	246.9877	1350.3345	-38.7612	186.39	1349.4488	-327.2471	218.6953	1384.7754	-344.4337	216.3758	1401.819	-294.8953	415.8758	1137.8209	-206.6033	180.5792	1188.6274	-223.4715	310.8811	1134.5464	-4.3069	250.8053	990.9898	-37.6247	261.3415	1000.5439	27.5002	318.2138	846.9874	51.8429	370.2424	786.2638	35.7575	321.8349	777.7275	51.301	394.1835	703.6731	48.4054	344.9454	698.6926	60.5968	302.0538	1484.316	-349.9753	366.2738	1569.1105	-453.9638	321.5919	1595.2809	-448.8396	348.5355	1751.8866	-458.3364	387.5496	1822.7217	-443.3412	378.6352	1818.2904	-487.5721	379.231	1893.2624	-445.3878	376.7528	1889.5018	-488.693	375.6078	905.5806	-80.411	190.1626	929.7612	-168.2809	382.7628	893.259	-337.247	193.7938	924.1449	-270.0892	294.8683	969.1835	-54.4971	299.2582	941.8757	-377.5327	127.9904	1290.3418	-289.8776	154.3493	1210.1439	-345.7284	162.2879	1378.3082	-391.8156
132	0.655	200.7466	1368.9048	-207.5126	340.5618	1326.465	-196.9501	195.9571	1310.5588	-58.832	227.9695	1313.4691	-19.9866	247.013	1350.3124	-38.717	186.4205	1349.4536	-327.2489	218.2394	1384.9648	-344.2681	216.3598	1401.822	-294.8784	415.9103	1137.8163	-206.6103	180.5874	1188.6417	-223.4613	310.912	1134.5883	-4.311	250.8332	991.0056	-37.6338	261.3732	1000.566	27.5271	318.2266	846.968	51.8217	370.2547	786.2574	35.72	321.8556	777.7413	51.2695	394.1875	703.6511	48.3536	345.0578	698.6024	60.6009	302.0485	1484.3409	-349.98	366.3067	1569.0931	-453.9521	321.6219	1595.2671	-448.8422	348.58	1751.8657	-458.3377	387.587	1822.7477	-443.3499	378.7057	1818.261	-487.5586	379.294	1893.229	-445.3769	376.8117	1889.4805	-488.6916	375.6419	905.6046	-80.3677	190.1732	929.8237	-168.1975	382.759	893.2934	-337.2481	193.8145	924.14	-270.0787	295.0006	969.1091	-54.4575	299.1544	941.8086	-377.8277	128.0032	1290.3602	-289.8535	154.2702	1210.1433	-345.6109	162.301	1378.2865	-391.7897
133	0.66	200.7549	1368.9143	-207.4749	340.5687	1326.4713	-196.9544	195.9857	1310.5584	-58.809	228.0023	1313.4999	-19.9734	247.04	1350.2992	-38.7137	186.4063	1349.453	-327.2191	218.6696	1384.7854	-344.4112	216.3646	1401.8435	-294.886	415.8941	1137.8096	-206.5972	180.5585	1188.648	-223.4201	310.9722	1134.5216	-4.3276	250.841	991.0165	-37.628	261.45	1000.6174	27.5445	318.2533	846.9869	51.8064	370.3093	786.2093	35.6835	321.8963	777.6706	51.2702	394.2092	703.6401	48.2993	345.0232	698.6283	60.5882	302.0713	1484.3182	-349.9796	366.3411	1569.0887	-453.9198	321.6704	1595.2627	-448.814	348.6546	1751.9817	-458.4291	387.6739	1822.666	-443.3692	378.7627	1818.2578	-487.5593	379.3699	1893.2301	-445.3791	376.8615	1889.4721	-488.6971	375.6392	905.5962	-80.3649	190.1572	929.7611	-168.2183	382.7593	893.3103	-337.2163	193.8279	924.1468	-270.0317	294.8699	969.2297	-54.4489	299.154	941.7618	-377.7647	127.9858	1290.3484	-289.835	154.2235	1210.1152	-345.5577	162.2965	1378.2534	-391.7716
